<svg width="268" height="146" viewBox="0 0 268 146" fill="none" xmlns="http://www.w3.org/2000/svg">
<path d="M174.79 3C185.12 3.00013 193.856 9.88575 196.688 19.3086L244.689 32.6084C256.232 35.8003 264.263 46.3704 264.201 58.3438L264.173 66.4707V66.4727C264.137 74.9316 257.248 81.8213 248.755 81.8213H175.85C175.395 85.9394 171.904 89.1455 167.665 89.1455H135.476C129.61 89.1455 124.44 86.2228 121.282 81.8213H107.693C107.239 85.9394 103.746 89.1455 99.5078 89.1455H67.3184C66.1622 89.1455 65.0478 89.029 63.9707 88.8174C62.0282 91.5747 60.9619 94.8736 60.9619 98.335C60.9619 107.437 68.374 114.849 77.4756 114.85H79.3076C87.0589 114.85 93.3809 121.171 93.3809 128.923C93.3808 136.571 87.1709 142.887 79.4932 142.996H79.3184C58.8986 142.877 39.7135 134.834 25.334 120.366C10.9233 105.896 3 86.6497 3 66.2021C3.00002 59.3242 4.20703 52.5845 6.62598 46.1738C7.04136 45.0715 7.74382 43.513 8.30566 42.2969C8.59341 41.674 8.85607 41.1141 9.0459 40.7119C9.05292 40.697 9.05962 40.6823 9.06641 40.668V40.0947L9.5918 39.5674C19.4838 20.8679 38.7573 9.2373 59.9365 9.2373H159.1C163.296 5.27325 168.888 3 174.79 3Z" fill="#EB4343" stroke="white" stroke-width="6"/>
<path d="M180.827 25.8862C180.827 22.5671 178.137 19.8774 174.818 19.8774C171.499 19.8774 168.809 22.5671 168.809 25.8862C168.809 29.2054 171.499 31.895 174.818 31.895C178.137 31.9236 180.827 29.234 180.827 25.8862Z" fill="#EB4343"/>
<path d="M250.615 56.531C250.701 57.1033 250.701 66.4312 250.701 66.4312C250.701 67.4899 249.842 68.3483 248.784 68.3483H169.296C165.262 61.8817 158.251 57.4467 150.182 57.0747V56.4166C150.182 48.3763 143.658 41.8524 135.618 41.8524C127.578 41.8524 121.054 48.3763 121.054 56.4166V68.3483H101.168C97.1333 61.8817 90.123 57.4467 82.0541 57.0747V56.4166C82.0541 48.3763 75.5303 41.8524 67.4899 41.8524C59.4496 41.8524 52.9258 48.3763 52.9258 56.4166V71.7819C52.9258 74.3285 53.5839 76.732 54.757 78.8208C50.093 84.2001 47.4892 91.0959 47.4892 98.3923C47.4892 114.931 60.9661 128.408 77.5046 128.408H79.3358C79.6506 128.408 79.9081 128.665 79.9081 128.98C79.9081 129.295 79.6506 129.552 79.3644 129.552C62.5684 129.438 46.7739 122.799 34.928 110.896C23.0535 98.9645 16.5297 83.1128 16.5297 66.2596C16.5297 60.9947 17.4453 55.8729 19.2765 50.9801C19.8774 49.3777 20.5927 47.7754 21.3939 46.2589C21.4225 46.2303 21.4225 46.173 21.4511 46.1444C28.9764 31.7519 43.7123 22.8246 59.9074 22.796L59.8216 22.8818C57.9617 24.7417 57.9617 27.7175 59.8216 29.5487C60.7372 30.4643 61.9389 30.9221 63.1693 30.9221C64.3711 30.9221 65.6014 30.4643 66.5171 29.5487L73.2698 22.796H78.1913L78.1054 22.8818C76.2742 24.7417 76.2742 27.7175 78.1054 29.5487C79.0211 30.4643 80.2228 30.9221 81.4532 30.9221C82.655 30.9221 83.8567 30.4643 84.801 29.5487L91.5537 22.796H96.4752L96.3893 22.8818C94.5581 24.7417 94.5581 27.7175 96.3893 29.5487C97.305 30.4643 98.5067 30.9221 99.7371 30.9221C100.939 30.9221 102.141 30.4643 103.085 29.5487L109.838 22.796H114.759L114.673 22.8818C112.842 24.7417 112.842 27.7175 114.673 29.5487C115.589 30.4643 116.791 30.9221 118.021 30.9221C119.223 30.9221 120.424 30.4643 121.369 29.5487L128.121 22.796H132.986L132.9 22.8818C131.069 24.7417 131.069 27.7175 132.9 29.5487C133.816 30.4643 135.017 30.9221 136.248 30.9221C137.449 30.9221 138.651 30.4643 139.595 29.5487L146.348 22.796H162.887C164.603 22.796 166.206 21.9662 167.179 20.5355C168.924 18.0176 171.785 16.5297 174.847 16.5297C179.997 16.5297 184.203 20.7358 184.203 25.8862C184.203 28.2325 185.777 30.3213 188.066 30.9508L241.144 45.6008C242.889 46.0872 244.434 46.8884 245.808 47.9757C245.608 48.1187 240.572 53.0974 240.572 53.0974L235.908 48.4907C235.021 47.6037 233.819 47.1173 232.56 47.1173C231.301 47.1173 230.099 47.6037 229.212 48.4907L224.577 53.1261L219.941 48.4907C219.054 47.6037 217.853 47.1173 216.594 47.1173C215.335 47.1173 214.133 47.6037 213.246 48.4907L208.611 53.1261L204.004 48.4907C202.144 46.6308 199.168 46.6308 197.337 48.4907L192.702 53.1261L188.066 48.4907C186.235 46.6308 183.231 46.6308 181.399 48.4907C179.568 50.322 179.568 53.3263 181.399 55.1576L189.382 63.1407C190.269 64.0277 191.471 64.5141 192.73 64.5141C193.989 64.5141 195.191 64.0277 196.078 63.1407L200.713 58.5054L205.349 63.1407C206.236 64.0277 207.437 64.5141 208.696 64.5141C209.955 64.5141 211.157 64.0277 212.044 63.1407L216.68 58.5054L221.315 63.1407C222.202 64.0277 223.404 64.5141 224.663 64.5141C225.922 64.5141 227.123 64.0277 228.01 63.1407L232.646 58.5054L237.281 63.1407C239.141 64.972 242.117 64.972 243.948 63.1407L250.615 56.531Z" fill="white"/>
<path d="M174.818 19.8774C178.137 19.8774 180.827 22.5671 180.827 25.8862C180.827 29.2054 178.137 31.895 174.818 31.895C171.499 31.895 168.809 29.2054 168.809 25.8862C168.809 22.5671 171.499 19.8774 174.818 19.8774Z" fill="#EB4343"/>
<path d="M161.341 75.7019H135.475C133.3 75.7019 131.555 73.9279 131.555 71.7819V56.4166C131.555 54.1848 133.386 52.3535 135.618 52.3535C137.85 52.3535 139.681 54.1848 139.681 56.4166V62.2823C139.681 65.1723 142.027 67.5186 144.917 67.5186H149.009C154.531 67.5472 159.31 70.8949 161.341 75.7019ZM93.1846 75.7019H67.3182C65.1436 75.7019 63.3982 73.9279 63.3982 71.7819V56.4166C63.3982 54.1848 65.2294 52.3535 67.4613 52.3535C69.7217 52.3535 71.5244 54.1848 71.5244 56.4166V62.2823C71.5244 65.1723 73.8707 67.5186 76.7606 67.5186H80.8523C86.4033 67.5472 91.1531 70.8949 93.1846 75.7019Z" fill="white"/>
</svg>
