<svg width="1189" height="308" viewBox="0 0 1189 308" fill="none" xmlns="http://www.w3.org/2000/svg">
<mask id="path-1-outside-1_3_54" maskUnits="userSpaceOnUse" x="66" y="146" width="1107" height="138" fill="black">
<rect fill="white" x="66" y="146" width="1107" height="138"/>
<path d="M114.66 264V187.98H84.56V166H172.34V187.98H142.38V264H114.66ZM165.985 264L209.245 166H236.545L279.945 264H251.105L217.225 179.58H228.145L194.265 264H165.985ZM189.645 244.96L196.785 224.52H244.665L251.805 244.96H189.645ZM287.804 264V166H310.624L351.224 232.64H339.184L378.664 166H401.484L401.764 264H376.284L376.004 204.78H380.344L350.804 254.34H338.484L308.104 204.78H313.424V264H287.804ZM421.378 264V166H466.178C475.138 166 482.838 167.447 489.278 170.34C495.811 173.233 500.851 177.433 504.398 182.94C507.945 188.353 509.718 194.793 509.718 202.26C509.718 209.633 507.945 216.027 504.398 221.44C500.851 226.853 495.811 231.053 489.278 234.04C482.838 236.933 475.138 238.38 466.178 238.38H436.778L449.098 226.34V264H421.378ZM449.098 229.28L436.778 216.54H464.498C470.285 216.54 474.578 215.28 477.378 212.76C480.271 210.24 481.718 206.74 481.718 202.26C481.718 197.687 480.271 194.14 477.378 191.62C474.578 189.1 470.285 187.84 464.498 187.84H436.778L449.098 175.1V229.28ZM523.234 264V166H550.954V264H523.234ZM619.675 265.96C611.928 265.96 604.742 264.747 598.115 262.32C591.488 259.8 585.748 256.253 580.895 251.68C576.135 247.107 572.402 241.74 569.695 235.58C566.988 229.327 565.635 222.467 565.635 215C565.635 207.533 566.988 200.72 569.695 194.56C572.402 188.307 576.182 182.893 581.035 178.32C585.888 173.747 591.628 170.247 598.255 167.82C604.975 165.3 612.302 164.04 620.235 164.04C629.475 164.04 637.735 165.58 645.015 168.66C652.295 171.74 658.315 176.173 663.075 181.96L645.435 197.92C642.075 194.28 638.435 191.573 634.515 189.8C630.688 187.933 626.395 187 621.635 187C617.435 187 613.608 187.653 610.155 188.96C606.702 190.267 603.762 192.18 601.335 194.7C598.908 197.127 596.995 200.067 595.595 203.52C594.288 206.88 593.635 210.707 593.635 215C593.635 219.107 594.288 222.887 595.595 226.34C596.995 229.793 598.908 232.78 601.335 235.3C603.762 237.727 606.655 239.64 610.015 241.04C613.468 242.347 617.248 243 621.355 243C625.462 243 629.475 242.347 633.395 241.04C637.315 239.64 641.282 237.307 645.295 234.04L660.835 253.5C655.235 257.513 648.748 260.593 641.375 262.74C634.002 264.887 626.768 265.96 619.675 265.96ZM636.335 249.86V212.9H660.835V253.5L636.335 249.86ZM723.629 265.96C709.163 265.96 697.869 261.993 689.749 254.06C681.629 246.127 677.569 234.88 677.569 220.32V166H705.289V219.48C705.289 227.88 706.923 233.9 710.189 237.54C713.549 241.18 718.123 243 723.909 243C729.696 243 734.223 241.18 737.489 237.54C740.756 233.9 742.389 227.88 742.389 219.48V166H769.689V220.32C769.689 234.88 765.629 246.127 757.509 254.06C749.389 261.993 738.096 265.96 723.629 265.96ZM813.948 203.94H859.448V224.66H813.948V203.94ZM815.908 242.58H867.148V264H788.468V166H865.328V187.42H815.908V242.58ZM916.97 265.96C908.944 265.96 901.197 264.98 893.73 263.02C886.357 260.967 880.337 258.353 875.67 255.18L884.77 234.74C889.157 237.54 894.197 239.873 899.89 241.74C905.677 243.513 911.417 244.4 917.11 244.4C920.937 244.4 924.017 244.073 926.35 243.42C928.684 242.673 930.364 241.74 931.39 240.62C932.51 239.407 933.07 238.007 933.07 236.42C933.07 234.18 932.044 232.407 929.99 231.1C927.937 229.793 925.277 228.72 922.01 227.88C918.744 227.04 915.104 226.2 911.09 225.36C907.17 224.52 903.204 223.447 899.19 222.14C895.27 220.833 891.677 219.153 888.41 217.1C885.144 214.953 882.484 212.2 880.43 208.84C878.377 205.387 877.35 201.047 877.35 195.82C877.35 189.94 878.937 184.62 882.11 179.86C885.377 175.1 890.23 171.273 896.67 168.38C903.11 165.487 911.137 164.04 920.75 164.04C927.19 164.04 933.49 164.787 939.65 166.28C945.904 167.68 951.457 169.78 956.31 172.58L947.77 193.16C943.104 190.64 938.484 188.773 933.91 187.56C929.337 186.253 924.904 185.6 920.61 185.6C916.784 185.6 913.704 186.02 911.37 186.86C909.037 187.607 907.357 188.633 906.33 189.94C905.304 191.247 904.79 192.74 904.79 194.42C904.79 196.567 905.77 198.293 907.73 199.6C909.784 200.813 912.444 201.84 915.71 202.68C919.07 203.427 922.71 204.22 926.63 205.06C930.644 205.9 934.61 206.973 938.53 208.28C942.544 209.493 946.184 211.173 949.45 213.32C952.717 215.373 955.33 218.127 957.29 221.58C959.344 224.94 960.37 229.187 960.37 234.32C960.37 240.013 958.737 245.287 955.47 250.14C952.297 254.9 947.49 258.727 941.05 261.62C934.704 264.513 926.677 265.96 916.97 265.96ZM1007.62 265.96C999.588 265.96 991.842 264.98 984.375 263.02C977.002 260.967 970.982 258.353 966.315 255.18L975.415 234.74C979.802 237.54 984.842 239.873 990.535 241.74C996.322 243.513 1002.06 244.4 1007.76 244.4C1011.58 244.4 1014.66 244.073 1017 243.42C1019.33 242.673 1021.01 241.74 1022.04 240.62C1023.16 239.407 1023.72 238.007 1023.72 236.42C1023.72 234.18 1022.69 232.407 1020.64 231.1C1018.58 229.793 1015.92 228.72 1012.66 227.88C1009.39 227.04 1005.75 226.2 1001.74 225.36C997.815 224.52 993.848 223.447 989.835 222.14C985.915 220.833 982.322 219.153 979.055 217.1C975.788 214.953 973.128 212.2 971.075 208.84C969.022 205.387 967.995 201.047 967.995 195.82C967.995 189.94 969.582 184.62 972.755 179.86C976.022 175.1 980.875 171.273 987.315 168.38C993.755 165.487 1001.78 164.04 1011.4 164.04C1017.84 164.04 1024.14 164.787 1030.3 166.28C1036.55 167.68 1042.1 169.78 1046.96 172.58L1038.42 193.16C1033.75 190.64 1029.13 188.773 1024.56 187.56C1019.98 186.253 1015.55 185.6 1011.26 185.6C1007.43 185.6 1004.35 186.02 1002.02 186.86C999.682 187.607 998.002 188.633 996.975 189.94C995.948 191.247 995.435 192.74 995.435 194.42C995.435 196.567 996.415 198.293 998.375 199.6C1000.43 200.813 1003.09 201.84 1006.36 202.68C1009.72 203.427 1013.36 204.22 1017.28 205.06C1021.29 205.9 1025.26 206.973 1029.18 208.28C1033.19 209.493 1036.83 211.173 1040.1 213.32C1043.36 215.373 1045.98 218.127 1047.94 221.58C1049.99 224.94 1051.02 229.187 1051.02 234.32C1051.02 240.013 1049.38 245.287 1046.12 250.14C1042.94 254.9 1038.14 258.727 1031.7 261.62C1025.35 264.513 1017.32 265.96 1007.62 265.96ZM1063.82 264V166H1108.62C1117.58 166 1125.28 167.447 1131.72 170.34C1138.25 173.233 1143.29 177.433 1146.84 182.94C1150.39 188.353 1152.16 194.793 1152.16 202.26C1152.16 209.633 1150.39 216.027 1146.84 221.44C1143.29 226.76 1138.25 230.867 1131.72 233.76C1125.28 236.56 1117.58 237.96 1108.62 237.96H1079.22L1091.54 226.34V264H1063.82ZM1124.44 264L1100.08 228.3H1129.62L1154.12 264H1124.44ZM1091.54 229.28L1079.22 216.54H1106.94C1112.73 216.54 1117.02 215.28 1119.82 212.76C1122.71 210.24 1124.16 206.74 1124.16 202.26C1124.16 197.687 1122.71 194.14 1119.82 191.62C1117.02 189.1 1112.73 187.84 1106.94 187.84H1079.22L1091.54 175.1V229.28Z"/>
</mask>
<path d="M114.66 264V187.98H84.56V166H172.34V187.98H142.38V264H114.66ZM165.985 264L209.245 166H236.545L279.945 264H251.105L217.225 179.58H228.145L194.265 264H165.985ZM189.645 244.96L196.785 224.52H244.665L251.805 244.96H189.645ZM287.804 264V166H310.624L351.224 232.64H339.184L378.664 166H401.484L401.764 264H376.284L376.004 204.78H380.344L350.804 254.34H338.484L308.104 204.78H313.424V264H287.804ZM421.378 264V166H466.178C475.138 166 482.838 167.447 489.278 170.34C495.811 173.233 500.851 177.433 504.398 182.94C507.945 188.353 509.718 194.793 509.718 202.26C509.718 209.633 507.945 216.027 504.398 221.44C500.851 226.853 495.811 231.053 489.278 234.04C482.838 236.933 475.138 238.38 466.178 238.38H436.778L449.098 226.34V264H421.378ZM449.098 229.28L436.778 216.54H464.498C470.285 216.54 474.578 215.28 477.378 212.76C480.271 210.24 481.718 206.74 481.718 202.26C481.718 197.687 480.271 194.14 477.378 191.62C474.578 189.1 470.285 187.84 464.498 187.84H436.778L449.098 175.1V229.28ZM523.234 264V166H550.954V264H523.234ZM619.675 265.96C611.928 265.96 604.742 264.747 598.115 262.32C591.488 259.8 585.748 256.253 580.895 251.68C576.135 247.107 572.402 241.74 569.695 235.58C566.988 229.327 565.635 222.467 565.635 215C565.635 207.533 566.988 200.72 569.695 194.56C572.402 188.307 576.182 182.893 581.035 178.32C585.888 173.747 591.628 170.247 598.255 167.82C604.975 165.3 612.302 164.04 620.235 164.04C629.475 164.04 637.735 165.58 645.015 168.66C652.295 171.74 658.315 176.173 663.075 181.96L645.435 197.92C642.075 194.28 638.435 191.573 634.515 189.8C630.688 187.933 626.395 187 621.635 187C617.435 187 613.608 187.653 610.155 188.96C606.702 190.267 603.762 192.18 601.335 194.7C598.908 197.127 596.995 200.067 595.595 203.52C594.288 206.88 593.635 210.707 593.635 215C593.635 219.107 594.288 222.887 595.595 226.34C596.995 229.793 598.908 232.78 601.335 235.3C603.762 237.727 606.655 239.64 610.015 241.04C613.468 242.347 617.248 243 621.355 243C625.462 243 629.475 242.347 633.395 241.04C637.315 239.64 641.282 237.307 645.295 234.04L660.835 253.5C655.235 257.513 648.748 260.593 641.375 262.74C634.002 264.887 626.768 265.96 619.675 265.96ZM636.335 249.86V212.9H660.835V253.5L636.335 249.86ZM723.629 265.96C709.163 265.96 697.869 261.993 689.749 254.06C681.629 246.127 677.569 234.88 677.569 220.32V166H705.289V219.48C705.289 227.88 706.923 233.9 710.189 237.54C713.549 241.18 718.123 243 723.909 243C729.696 243 734.223 241.18 737.489 237.54C740.756 233.9 742.389 227.88 742.389 219.48V166H769.689V220.32C769.689 234.88 765.629 246.127 757.509 254.06C749.389 261.993 738.096 265.96 723.629 265.96ZM813.948 203.94H859.448V224.66H813.948V203.94ZM815.908 242.58H867.148V264H788.468V166H865.328V187.42H815.908V242.58ZM916.97 265.96C908.944 265.96 901.197 264.98 893.73 263.02C886.357 260.967 880.337 258.353 875.67 255.18L884.77 234.74C889.157 237.54 894.197 239.873 899.89 241.74C905.677 243.513 911.417 244.4 917.11 244.4C920.937 244.4 924.017 244.073 926.35 243.42C928.684 242.673 930.364 241.74 931.39 240.62C932.51 239.407 933.07 238.007 933.07 236.42C933.07 234.18 932.044 232.407 929.99 231.1C927.937 229.793 925.277 228.72 922.01 227.88C918.744 227.04 915.104 226.2 911.09 225.36C907.17 224.52 903.204 223.447 899.19 222.14C895.27 220.833 891.677 219.153 888.41 217.1C885.144 214.953 882.484 212.2 880.43 208.84C878.377 205.387 877.35 201.047 877.35 195.82C877.35 189.94 878.937 184.62 882.11 179.86C885.377 175.1 890.23 171.273 896.67 168.38C903.11 165.487 911.137 164.04 920.75 164.04C927.19 164.04 933.49 164.787 939.65 166.28C945.904 167.68 951.457 169.78 956.31 172.58L947.77 193.16C943.104 190.64 938.484 188.773 933.91 187.56C929.337 186.253 924.904 185.6 920.61 185.6C916.784 185.6 913.704 186.02 911.37 186.86C909.037 187.607 907.357 188.633 906.33 189.94C905.304 191.247 904.79 192.74 904.79 194.42C904.79 196.567 905.77 198.293 907.73 199.6C909.784 200.813 912.444 201.84 915.71 202.68C919.07 203.427 922.71 204.22 926.63 205.06C930.644 205.9 934.61 206.973 938.53 208.28C942.544 209.493 946.184 211.173 949.45 213.32C952.717 215.373 955.33 218.127 957.29 221.58C959.344 224.94 960.37 229.187 960.37 234.32C960.37 240.013 958.737 245.287 955.47 250.14C952.297 254.9 947.49 258.727 941.05 261.62C934.704 264.513 926.677 265.96 916.97 265.96ZM1007.62 265.96C999.588 265.96 991.842 264.98 984.375 263.02C977.002 260.967 970.982 258.353 966.315 255.18L975.415 234.74C979.802 237.54 984.842 239.873 990.535 241.74C996.322 243.513 1002.06 244.4 1007.76 244.4C1011.58 244.4 1014.66 244.073 1017 243.42C1019.33 242.673 1021.01 241.74 1022.04 240.62C1023.16 239.407 1023.72 238.007 1023.72 236.42C1023.72 234.18 1022.69 232.407 1020.64 231.1C1018.58 229.793 1015.92 228.72 1012.66 227.88C1009.39 227.04 1005.75 226.2 1001.74 225.36C997.815 224.52 993.848 223.447 989.835 222.14C985.915 220.833 982.322 219.153 979.055 217.1C975.788 214.953 973.128 212.2 971.075 208.84C969.022 205.387 967.995 201.047 967.995 195.82C967.995 189.94 969.582 184.62 972.755 179.86C976.022 175.1 980.875 171.273 987.315 168.38C993.755 165.487 1001.78 164.04 1011.4 164.04C1017.84 164.04 1024.14 164.787 1030.3 166.28C1036.55 167.68 1042.1 169.78 1046.96 172.58L1038.42 193.16C1033.75 190.64 1029.13 188.773 1024.56 187.56C1019.98 186.253 1015.55 185.6 1011.26 185.6C1007.43 185.6 1004.35 186.02 1002.02 186.86C999.682 187.607 998.002 188.633 996.975 189.94C995.948 191.247 995.435 192.74 995.435 194.42C995.435 196.567 996.415 198.293 998.375 199.6C1000.43 200.813 1003.09 201.84 1006.36 202.68C1009.72 203.427 1013.36 204.22 1017.28 205.06C1021.29 205.9 1025.26 206.973 1029.18 208.28C1033.19 209.493 1036.83 211.173 1040.1 213.32C1043.36 215.373 1045.98 218.127 1047.94 221.58C1049.99 224.94 1051.02 229.187 1051.02 234.32C1051.02 240.013 1049.38 245.287 1046.12 250.14C1042.94 254.9 1038.14 258.727 1031.7 261.62C1025.35 264.513 1017.32 265.96 1007.62 265.96ZM1063.82 264V166H1108.62C1117.58 166 1125.28 167.447 1131.72 170.34C1138.25 173.233 1143.29 177.433 1146.84 182.94C1150.39 188.353 1152.16 194.793 1152.16 202.26C1152.16 209.633 1150.39 216.027 1146.84 221.44C1143.29 226.76 1138.25 230.867 1131.72 233.76C1125.28 236.56 1117.58 237.96 1108.62 237.96H1079.22L1091.54 226.34V264H1063.82ZM1124.44 264L1100.08 228.3H1129.62L1154.12 264H1124.44ZM1091.54 229.28L1079.22 216.54H1106.94C1112.73 216.54 1117.02 215.28 1119.82 212.76C1122.71 210.24 1124.16 206.74 1124.16 202.26C1124.16 197.687 1122.71 194.14 1119.82 191.62C1117.02 189.1 1112.73 187.84 1106.94 187.84H1079.22L1091.54 175.1V229.28Z" fill="white"/>
<path d="M114.66 264H96.66C96.66 273.941 104.719 282 114.66 282V264ZM114.66 187.98H132.66C132.66 178.039 124.601 169.98 114.66 169.98V187.98ZM84.56 187.98H66.56C66.56 197.921 74.6189 205.98 84.56 205.98V187.98ZM84.56 166V148C74.6189 148 66.56 156.059 66.56 166H84.56ZM172.34 166H190.34C190.34 156.059 182.281 148 172.34 148V166ZM172.34 187.98V205.98C182.281 205.98 190.34 197.921 190.34 187.98H172.34ZM142.38 187.98V169.98C132.439 169.98 124.38 178.039 124.38 187.98H142.38ZM142.38 264V282C152.321 282 160.38 273.941 160.38 264H142.38ZM114.66 264H132.66V187.98H114.66H96.66V264H114.66ZM114.66 187.98V169.98H84.56V187.98V205.98H114.66V187.98ZM84.56 187.98H102.56V166H84.56H66.56V187.98H84.56ZM84.56 166V184H172.34V166V148H84.56V166ZM172.34 166H154.34V187.98H172.34H190.34V166H172.34ZM172.34 187.98V169.98H142.38V187.98V205.98H172.34V187.98ZM142.38 187.98H124.38V264H142.38H160.38V187.98H142.38ZM142.38 264V246H114.66V264V282H142.38V264ZM165.985 264L149.518 256.731C147.061 262.298 147.583 268.729 150.905 273.827C154.227 278.926 159.9 282 165.985 282V264ZM209.245 166V148C202.115 148 195.658 152.208 192.778 158.731L209.245 166ZM236.545 166L253.004 158.711C250.12 152.199 243.667 148 236.545 148V166ZM279.945 264V282C286.034 282 291.71 278.922 295.032 273.818C298.353 268.715 298.869 262.279 296.404 256.711L279.945 264ZM251.105 264L234.4 270.704C237.139 277.528 243.753 282 251.105 282V264ZM217.225 179.58V161.58C211.249 161.58 205.662 164.546 202.314 169.497C198.967 174.448 198.294 180.738 200.52 186.284L217.225 179.58ZM228.145 179.58L244.85 186.284C247.076 180.738 246.404 174.448 243.056 169.497C239.709 164.546 234.122 161.58 228.145 161.58V179.58ZM194.265 264V282C201.618 282 208.232 277.528 210.97 270.704L194.265 264ZM189.645 244.96L172.652 239.024C170.729 244.529 171.592 250.625 174.968 255.38C178.344 260.135 183.814 262.96 189.645 262.96V244.96ZM196.785 224.52V206.52C189.132 206.52 182.316 211.359 179.792 218.584L196.785 224.52ZM244.665 224.52L261.658 218.584C259.135 211.359 252.318 206.52 244.665 206.52V224.52ZM251.805 244.96V262.96C257.637 262.96 263.107 260.135 266.483 255.38C269.858 250.625 270.721 244.529 268.798 239.024L251.805 244.96ZM165.985 264L182.452 271.269L225.712 173.269L209.245 166L192.778 158.731L149.518 256.731L165.985 264ZM209.245 166V184H236.545V166V148H209.245V166ZM236.545 166L220.087 173.289L263.487 271.289L279.945 264L296.404 256.711L253.004 158.711L236.545 166ZM279.945 264V246H251.105V264V282H279.945V264ZM251.105 264L267.81 257.296L233.93 172.876L217.225 179.58L200.52 186.284L234.4 270.704L251.105 264ZM217.225 179.58V197.58H228.145V179.58V161.58H217.225V179.58ZM228.145 179.58L211.44 172.876L177.56 257.296L194.265 264L210.97 270.704L244.85 186.284L228.145 179.58ZM194.265 264V246H165.985V264V282H194.265V264ZM189.645 244.96L206.638 250.896L213.778 230.456L196.785 224.52L179.792 218.584L172.652 239.024L189.645 244.96ZM196.785 224.52V242.52H244.665V224.52V206.52H196.785V224.52ZM244.665 224.52L227.672 230.456L234.812 250.896L251.805 244.96L268.798 239.024L261.658 218.584L244.665 224.52ZM251.805 244.96V226.96H189.645V244.96V262.96H251.805V244.96ZM287.804 264H269.804C269.804 273.941 277.863 282 287.804 282V264ZM287.804 166V148C277.863 148 269.804 156.059 269.804 166H287.804ZM310.624 166L325.996 156.635C322.729 151.272 316.903 148 310.624 148V166ZM351.224 232.64V250.64C357.731 250.64 363.731 247.128 366.917 241.456C370.104 235.783 369.981 228.831 366.596 223.275L351.224 232.64ZM339.184 232.64L323.698 223.465C320.401 229.029 320.343 235.934 323.545 241.552C326.747 247.171 332.717 250.64 339.184 250.64V232.64ZM378.664 166V148C372.305 148 366.419 151.355 363.178 156.825L378.664 166ZM401.484 166L419.484 165.949C419.455 156.028 411.405 148 401.484 148V166ZM401.764 264V282C406.547 282 411.133 280.097 414.51 276.71C417.887 273.323 419.778 268.731 419.764 263.949L401.764 264ZM376.284 264L358.284 264.085C358.331 273.993 366.376 282 376.284 282V264ZM376.004 204.78V186.78C371.215 186.78 366.624 188.688 363.246 192.082C359.868 195.476 357.981 200.077 358.004 204.865L376.004 204.78ZM380.344 204.78L395.806 213.996C399.121 208.434 399.193 201.519 395.995 195.889C392.796 190.258 386.819 186.78 380.344 186.78V204.78ZM350.804 254.34V272.34C357.145 272.34 363.019 269.003 366.266 263.556L350.804 254.34ZM338.484 254.34L323.138 263.747C326.41 269.086 332.222 272.34 338.484 272.34V254.34ZM308.104 204.78V186.78C301.588 186.78 295.582 190.301 292.398 195.986C289.215 201.671 289.353 208.632 292.758 214.187L308.104 204.78ZM313.424 204.78H331.424C331.424 194.839 323.365 186.78 313.424 186.78V204.78ZM313.424 264V282C323.365 282 331.424 273.941 331.424 264H313.424ZM287.804 264H305.804V166H287.804H269.804V264H287.804ZM287.804 166V184H310.624V166V148H287.804V166ZM310.624 166L295.252 175.365L335.852 242.005L351.224 232.64L366.596 223.275L325.996 156.635L310.624 166ZM351.224 232.64V214.64H339.184V232.64V250.64H351.224V232.64ZM339.184 232.64L354.67 241.815L394.15 175.175L378.664 166L363.178 156.825L323.698 223.465L339.184 232.64ZM378.664 166V184H401.484V166V148H378.664V166ZM401.484 166L383.484 166.051L383.764 264.051L401.764 264L419.764 263.949L419.484 165.949L401.484 166ZM401.764 264V246H376.284V264V282H401.764V264ZM376.284 264L394.284 263.915L394.004 204.695L376.004 204.78L358.004 204.865L358.284 264.085L376.284 264ZM376.004 204.78V222.78H380.344V204.78V186.78H376.004V204.78ZM380.344 204.78L364.882 195.564L335.342 245.124L350.804 254.34L366.266 263.556L395.806 213.996L380.344 204.78ZM350.804 254.34V236.34H338.484V254.34V272.34H350.804V254.34ZM338.484 254.34L353.83 244.933L323.45 195.373L308.104 204.78L292.758 214.187L323.138 263.747L338.484 254.34ZM308.104 204.78V222.78H313.424V204.78V186.78H308.104V204.78ZM313.424 204.78H295.424V264H313.424H331.424V204.78H313.424ZM313.424 264V246H287.804V264V282H313.424V264ZM421.378 264H403.378C403.378 273.941 411.437 282 421.378 282V264ZM421.378 166V148C411.437 148 403.378 156.059 403.378 166H421.378ZM489.278 170.34L481.901 186.759C481.931 186.772 481.96 186.785 481.989 186.798L489.278 170.34ZM504.398 182.94L489.265 192.687C489.291 192.726 489.316 192.765 489.342 192.804L504.398 182.94ZM504.398 221.44L519.454 231.304L519.454 231.304L504.398 221.44ZM489.278 234.04L496.655 250.459C496.691 250.443 496.726 250.427 496.762 250.411L489.278 234.04ZM436.778 238.38L424.197 225.507C418.964 230.621 417.347 238.396 420.109 245.173C422.871 251.95 429.46 256.38 436.778 256.38V238.38ZM449.098 226.34H467.098C467.098 219.097 462.757 212.56 456.082 209.75C449.407 206.94 441.697 208.404 436.517 213.467L449.098 226.34ZM449.098 264V282C459.039 282 467.098 273.941 467.098 264H449.098ZM449.098 229.28L436.159 241.793C441.258 247.066 449.047 248.717 455.847 245.967C462.647 243.217 467.098 236.615 467.098 229.28H449.098ZM436.778 216.54V198.54C429.553 198.54 423.027 202.861 420.207 209.513C417.386 216.165 418.816 223.859 423.839 229.053L436.778 216.54ZM477.378 212.76L465.556 199.187C465.482 199.251 465.409 199.315 465.337 199.381L477.378 212.76ZM477.378 191.62L465.337 204.999C465.409 205.065 465.482 205.129 465.556 205.193L477.378 191.62ZM436.778 187.84L423.839 175.327C418.816 180.521 417.386 188.215 420.207 194.867C423.027 201.519 429.553 205.84 436.778 205.84V187.84ZM449.098 175.1H467.098C467.098 167.765 462.647 161.163 455.847 158.413C449.047 155.663 441.258 157.314 436.159 162.587L449.098 175.1ZM421.378 264H439.378V166H421.378H403.378V264H421.378ZM421.378 166V184H466.178V166V148H421.378V166ZM466.178 166V184C473.256 184 478.316 185.148 481.901 186.759L489.278 170.34L496.655 153.921C487.36 149.745 477.02 148 466.178 148V166ZM489.278 170.34L481.989 186.798C485.613 188.403 487.795 190.403 489.265 192.687L504.398 182.94L519.531 173.193C513.908 164.463 506.01 158.064 496.567 153.882L489.278 170.34ZM504.398 182.94L489.342 192.804C490.686 194.856 491.718 197.746 491.718 202.26H509.718H527.718C527.718 191.841 525.204 181.851 519.454 173.076L504.398 182.94ZM509.718 202.26H491.718C491.718 206.631 490.71 209.487 489.342 211.576L504.398 221.44L519.454 231.304C525.18 222.566 527.718 212.635 527.718 202.26H509.718ZM504.398 221.44L489.342 211.576C487.856 213.843 485.591 215.934 481.794 217.669L489.278 234.04L496.762 250.411C506.032 246.173 513.847 239.863 519.454 231.304L504.398 221.44ZM489.278 234.04L481.901 217.621C478.316 219.232 473.256 220.38 466.178 220.38V238.38V256.38C477.02 256.38 487.36 254.635 496.655 250.459L489.278 234.04ZM466.178 238.38V220.38H436.778V238.38V256.38H466.178V238.38ZM436.778 238.38L449.359 251.253L461.679 239.213L449.098 226.34L436.517 213.467L424.197 225.507L436.778 238.38ZM449.098 226.34H431.098V264H449.098H467.098V226.34H449.098ZM449.098 264V246H421.378V264V282H449.098V264ZM449.098 229.28L462.038 216.767L449.718 204.027L436.778 216.54L423.839 229.053L436.159 241.793L449.098 229.28ZM436.778 216.54V234.54H464.498V216.54V198.54H436.778V216.54ZM464.498 216.54V234.54C472.434 234.54 481.932 232.878 489.419 226.139L477.378 212.76L465.337 199.381C466.282 198.53 467.031 198.311 466.989 198.323C466.958 198.333 466.752 198.389 466.326 198.443C465.9 198.496 465.299 198.54 464.498 198.54V216.54ZM477.378 212.76L489.2 226.333C496.691 219.809 499.718 210.982 499.718 202.26H481.718H463.718C463.718 202.565 463.671 202.16 463.998 201.369C464.354 200.509 464.93 199.732 465.556 199.187L477.378 212.76ZM481.718 202.26H499.718C499.718 193.578 496.776 184.645 489.2 178.047L477.378 191.62L465.556 205.193C464.884 204.608 464.308 203.806 463.966 202.968C463.656 202.208 463.718 201.862 463.718 202.26H481.718ZM477.378 191.62L489.419 178.241C481.932 171.502 472.434 169.84 464.498 169.84V187.84V205.84C465.299 205.84 465.9 205.884 466.326 205.937C466.752 205.991 466.958 206.047 466.989 206.057C467.031 206.069 466.282 205.85 465.337 204.999L477.378 191.62ZM464.498 187.84V169.84H436.778V187.84V205.84H464.498V187.84ZM436.778 187.84L449.718 200.353L462.038 187.613L449.098 175.1L436.159 162.587L423.839 175.327L436.778 187.84ZM449.098 175.1H431.098V229.28H449.098H467.098V175.1H449.098ZM523.234 264H505.234C505.234 273.941 513.292 282 523.234 282V264ZM523.234 166V148C513.292 148 505.234 156.059 505.234 166H523.234ZM550.954 166H568.954C568.954 156.059 560.895 148 550.954 148V166ZM550.954 264V282C560.895 282 568.954 273.941 568.954 264H550.954ZM523.234 264H541.234V166H523.234H505.234V264H523.234ZM523.234 166V184H550.954V166V148H523.234V166ZM550.954 166H532.954V264H550.954H568.954V166H550.954ZM550.954 264V246H523.234V264V282H550.954V264ZM598.115 262.32L591.717 279.145C591.786 279.171 591.856 279.197 591.925 279.222L598.115 262.32ZM580.895 251.68L568.424 264.66C568.466 264.7 568.508 264.74 568.551 264.78L580.895 251.68ZM569.695 235.58L553.176 242.73C553.189 242.76 553.202 242.791 553.216 242.821L569.695 235.58ZM569.695 194.56L586.174 201.801C586.188 201.771 586.201 201.74 586.214 201.71L569.695 194.56ZM581.035 178.32L568.691 165.22L568.691 165.22L581.035 178.32ZM598.255 167.82L604.445 184.722C604.488 184.706 604.532 184.69 604.575 184.674L598.255 167.82ZM645.015 168.66L652.029 152.083L652.029 152.083L645.015 168.66ZM663.075 181.96L675.151 195.308C682.279 188.859 683.082 177.948 676.976 170.525L663.075 181.96ZM645.435 197.92L632.209 210.129C638.904 217.382 650.192 217.89 657.511 211.268L645.435 197.92ZM634.515 189.8L626.623 205.978C626.78 206.054 626.937 206.128 627.096 206.2L634.515 189.8ZM601.335 194.7L614.063 207.428C614.143 207.348 614.222 207.267 614.301 207.186L601.335 194.7ZM595.595 203.52L578.914 196.757C578.882 196.837 578.85 196.916 578.819 196.996L595.595 203.52ZM595.595 226.34L578.76 232.71C578.81 232.842 578.861 232.972 578.914 233.103L595.595 226.34ZM601.335 235.3L588.369 247.786C588.448 247.867 588.527 247.948 588.607 248.028L601.335 235.3ZM610.015 241.04L603.092 257.655C603.275 257.732 603.459 257.805 603.645 257.875L610.015 241.04ZM633.395 241.04L639.087 258.116C639.208 258.076 639.329 258.034 639.449 257.991L633.395 241.04ZM645.295 234.04L659.361 222.808C656.363 219.055 651.991 216.655 647.215 216.143C642.439 215.63 637.657 217.048 633.932 220.08L645.295 234.04ZM660.835 253.5L671.32 268.131C675.333 265.255 677.988 260.858 678.665 255.968C679.342 251.078 677.981 246.125 674.901 242.268L660.835 253.5ZM641.375 262.74L646.407 280.022L646.407 280.022L641.375 262.74ZM636.335 249.86H618.335C618.335 258.779 624.867 266.354 633.69 267.665L636.335 249.86ZM636.335 212.9V194.9C626.394 194.9 618.335 202.959 618.335 212.9H636.335ZM660.835 212.9H678.835C678.835 202.959 670.776 194.9 660.835 194.9V212.9ZM660.835 253.5L658.19 271.305C663.369 272.074 668.626 270.55 672.591 267.131C676.555 263.712 678.835 258.736 678.835 253.5H660.835ZM619.675 265.96V247.96C613.834 247.96 608.764 247.051 604.305 245.418L598.115 262.32L591.925 279.222C600.72 282.443 610.023 283.96 619.675 283.96V265.96ZM598.115 262.32L604.513 245.495C599.952 243.761 596.267 241.433 593.239 238.58L580.895 251.68L568.551 264.78C575.229 271.073 583.024 275.839 591.717 279.145L598.115 262.32ZM580.895 251.68L593.366 238.7C590.338 235.791 587.952 232.385 586.174 228.339L569.695 235.58L553.216 242.821C556.851 251.095 561.932 258.422 568.424 264.66L580.895 251.68ZM569.695 235.58L586.214 228.43C584.574 224.642 583.635 220.244 583.635 215H565.635H547.635C547.635 224.689 549.402 234.011 553.176 242.73L569.695 235.58ZM565.635 215H583.635C583.635 209.751 584.575 205.44 586.174 201.801L569.695 194.56L553.216 187.319C549.401 196 547.635 205.315 547.635 215H565.635ZM569.695 194.56L586.214 201.71C587.97 197.653 590.347 194.277 593.379 191.42L581.035 178.32L568.691 165.22C562.016 171.509 556.833 178.96 553.176 187.41L569.695 194.56ZM581.035 178.32L593.379 191.42C596.358 188.614 599.97 186.361 604.445 184.722L598.255 167.82L592.065 150.918C583.286 154.133 575.419 158.879 568.691 165.22L581.035 178.32ZM598.255 167.82L604.575 184.674C609.072 182.988 614.233 182.04 620.235 182.04V164.04V146.04C610.37 146.04 600.878 147.612 591.935 150.966L598.255 167.82ZM620.235 164.04V182.04C627.467 182.04 633.283 183.241 638.001 185.237L645.015 168.66L652.029 152.083C642.187 147.919 631.483 146.04 620.235 146.04V164.04ZM645.015 168.66L638.001 185.237C642.756 187.249 646.363 189.977 649.174 193.395L663.075 181.96L676.976 170.525C670.267 162.369 661.834 156.231 652.029 152.083L645.015 168.66ZM663.075 181.96L650.999 168.612L633.359 184.572L645.435 197.92L657.511 211.268L675.151 195.308L663.075 181.96ZM645.435 197.92L658.661 185.711C653.911 180.565 648.358 176.306 641.934 173.4L634.515 189.8L627.096 206.2C628.512 206.84 630.239 207.995 632.209 210.129L645.435 197.92ZM634.515 189.8L642.407 173.622C635.845 170.421 628.804 169 621.635 169V187V205C623.986 205 625.531 205.445 626.623 205.978L634.515 189.8ZM621.635 187V169C615.555 169 609.534 169.95 603.785 172.125L610.155 188.96L616.525 205.795C617.683 205.357 619.315 205 621.635 205V187ZM610.155 188.96L603.785 172.125C597.979 174.322 592.747 177.668 588.369 182.214L601.335 194.7L614.301 207.186C614.776 206.692 615.424 206.212 616.525 205.795L610.155 188.96ZM601.335 194.7L588.607 181.972C584.335 186.244 581.141 191.264 578.914 196.757L595.595 203.52L612.276 210.283C612.849 208.869 613.482 208.009 614.063 207.428L601.335 194.7ZM595.595 203.52L578.819 196.996C576.565 202.792 575.635 208.891 575.635 215H593.635H611.635C611.635 212.522 612.012 210.968 612.371 210.044L595.595 203.52ZM593.635 215H575.635C575.635 221.04 576.601 227.005 578.76 232.71L595.595 226.34L612.43 219.97C611.975 218.768 611.635 217.174 611.635 215H593.635ZM595.595 226.34L578.914 233.103C581.119 238.543 584.249 243.507 588.369 247.786L601.335 235.3L614.301 222.814C613.568 222.053 612.871 221.044 612.276 219.577L595.595 226.34ZM601.335 235.3L588.607 248.028C592.795 252.216 597.695 255.407 603.092 257.655L610.015 241.04L616.938 224.425C615.615 223.873 614.728 223.237 614.063 222.572L601.335 235.3ZM610.015 241.04L603.645 257.875C609.35 260.034 615.315 261 621.355 261V243V225C619.181 225 617.587 224.66 616.385 224.205L610.015 241.04ZM621.355 243V261C627.408 261 633.343 260.031 639.087 258.116L633.395 241.04L627.703 223.964C625.607 224.662 623.515 225 621.355 225V243ZM633.395 241.04L639.449 257.991C645.7 255.759 651.428 252.257 656.658 248L645.295 234.04L633.932 220.08C631.135 222.357 628.93 223.521 627.341 224.089L633.395 241.04ZM645.295 234.04L631.23 245.272L646.77 264.732L660.835 253.5L674.901 242.268L659.361 222.808L645.295 234.04ZM660.835 253.5L650.35 238.869C646.583 241.569 641.984 243.815 636.343 245.458L641.375 262.74L646.407 280.022C655.512 277.371 663.887 273.458 671.32 268.131L660.835 253.5ZM641.375 262.74L636.343 245.458C630.471 247.167 624.931 247.96 619.675 247.96V265.96V283.96C628.605 283.96 637.533 282.606 646.407 280.022L641.375 262.74ZM636.335 249.86H654.335V212.9H636.335H618.335V249.86H636.335ZM636.335 212.9V230.9H660.835V212.9V194.9H636.335V212.9ZM660.835 212.9H642.835V253.5H660.835H678.835V212.9H660.835ZM660.835 253.5L663.48 235.695L638.98 232.055L636.335 249.86L633.69 267.665L658.19 271.305L660.835 253.5ZM689.749 254.06L702.328 241.185L702.328 241.185L689.749 254.06ZM677.569 166V148C667.628 148 659.569 156.059 659.569 166H677.569ZM705.289 166H723.289C723.289 156.059 715.231 148 705.289 148V166ZM710.189 237.54L696.793 249.562C696.849 249.625 696.906 249.687 696.963 249.749L710.189 237.54ZM737.489 237.54L724.093 225.518L737.489 237.54ZM742.389 166V148C732.448 148 724.389 156.059 724.389 166H742.389ZM769.689 166H787.689C787.689 156.059 779.631 148 769.689 148V166ZM757.509 254.06L744.93 241.185L757.509 254.06ZM723.629 265.96V247.96C712.515 247.96 706.231 244.997 702.328 241.185L689.749 254.06L677.17 266.935C689.508 278.989 705.81 283.96 723.629 283.96V265.96ZM689.749 254.06L702.328 241.185C698.585 237.527 695.569 231.473 695.569 220.32H677.569H659.569C659.569 238.287 664.674 254.726 677.17 266.935L689.749 254.06ZM677.569 220.32H695.569V166H677.569H659.569V220.32H677.569ZM677.569 166V184H705.289V166V148H677.569V166ZM705.289 166H687.289V219.48H705.289H723.289V166H705.289ZM705.289 219.48H687.289C687.289 229.392 689.063 240.949 696.793 249.562L710.189 237.54L723.586 225.518C724.275 226.286 724.164 226.604 723.886 225.582C723.602 224.534 723.289 222.6 723.289 219.48H705.289ZM710.189 237.54L696.963 249.749C704.31 257.709 714.023 261 723.909 261V243V225C722.902 225 722.627 224.844 722.795 224.911C722.874 224.942 723.001 225.004 723.142 225.101C723.283 225.198 723.375 225.287 723.416 225.331L710.189 237.54ZM723.909 243V261C733.783 261 743.576 257.708 750.886 249.562L737.489 237.54L724.093 225.518C724.166 225.436 724.295 225.313 724.475 225.187C724.655 225.061 724.819 224.979 724.93 224.934C725.159 224.842 724.922 225 723.909 225V243ZM737.489 237.54L750.886 249.562C758.616 240.949 760.389 229.392 760.389 219.48H742.389H724.389C724.389 222.6 724.077 224.534 723.792 225.582C723.515 226.604 723.404 226.286 724.093 225.518L737.489 237.54ZM742.389 219.48H760.389V166H742.389H724.389V219.48H742.389ZM742.389 166V184H769.689V166V148H742.389V166ZM769.689 166H751.689V220.32H769.689H787.689V166H769.689ZM769.689 220.32H751.689C751.689 231.473 748.674 237.527 744.93 241.185L757.509 254.06L770.088 266.935C782.585 254.726 787.689 238.287 787.689 220.32H769.689ZM757.509 254.06L744.93 241.185C741.028 244.997 734.743 247.96 723.629 247.96V265.96V283.96C741.449 283.96 757.751 278.989 770.088 266.935L757.509 254.06ZM813.948 203.94V185.94C804.007 185.94 795.948 193.999 795.948 203.94H813.948ZM859.448 203.94H877.448C877.448 193.999 869.389 185.94 859.448 185.94V203.94ZM859.448 224.66V242.66C869.389 242.66 877.448 234.601 877.448 224.66H859.448ZM813.948 224.66H795.948C795.948 234.601 804.007 242.66 813.948 242.66V224.66ZM815.908 242.58H797.908C797.908 252.521 805.967 260.58 815.908 260.58V242.58ZM867.148 242.58H885.148C885.148 232.639 877.089 224.58 867.148 224.58V242.58ZM867.148 264V282C877.089 282 885.148 273.941 885.148 264H867.148ZM788.468 264H770.468C770.468 273.941 778.527 282 788.468 282V264ZM788.468 166V148C778.527 148 770.468 156.059 770.468 166H788.468ZM865.328 166H883.328C883.328 156.059 875.269 148 865.328 148V166ZM865.328 187.42V205.42C875.269 205.42 883.328 197.361 883.328 187.42H865.328ZM815.908 187.42V169.42C805.967 169.42 797.908 177.479 797.908 187.42H815.908ZM813.948 203.94V221.94H859.448V203.94V185.94H813.948V203.94ZM859.448 203.94H841.448V224.66H859.448H877.448V203.94H859.448ZM859.448 224.66V206.66H813.948V224.66V242.66H859.448V224.66ZM813.948 224.66H831.948V203.94H813.948H795.948V224.66H813.948ZM815.908 242.58V260.58H867.148V242.58V224.58H815.908V242.58ZM867.148 242.58H849.148V264H867.148H885.148V242.58H867.148ZM867.148 264V246H788.468V264V282H867.148V264ZM788.468 264H806.468V166H788.468H770.468V264H788.468ZM788.468 166V184H865.328V166V148H788.468V166ZM865.328 166H847.328V187.42H865.328H883.328V166H865.328ZM865.328 187.42V169.42H815.908V187.42V205.42H865.328V187.42ZM815.908 187.42H797.908V242.58H815.908H833.908V187.42H815.908ZM893.73 263.02L888.902 280.36C888.988 280.384 889.074 280.407 889.16 280.43L893.73 263.02ZM875.67 255.18L859.227 247.859C855.684 255.816 858.347 265.167 865.549 270.065L875.67 255.18ZM884.77 234.74L894.455 219.567C890.037 216.747 884.61 215.993 879.59 217.502C874.571 219.01 870.458 222.631 868.327 227.419L884.77 234.74ZM899.89 241.74L894.283 258.844C894.394 258.881 894.505 258.916 894.616 258.95L899.89 241.74ZM926.35 243.42L931.204 260.753C931.416 260.694 931.627 260.631 931.836 260.564L926.35 243.42ZM931.39 240.62L918.164 228.411C918.15 228.426 918.136 228.442 918.122 228.457L931.39 240.62ZM929.99 231.1L920.327 246.286L920.327 246.286L929.99 231.1ZM922.01 227.88L926.493 210.447L926.493 210.447L922.01 227.88ZM911.09 225.36L907.319 242.96C907.347 242.966 907.375 242.972 907.403 242.978L911.09 225.36ZM899.19 222.14L893.498 239.216C893.538 239.23 893.578 239.243 893.618 239.256L899.19 222.14ZM888.41 217.1L878.525 232.143C878.627 232.209 878.729 232.275 878.831 232.339L888.41 217.1ZM880.43 208.84L864.959 218.039C864.996 218.102 865.033 218.164 865.071 218.226L880.43 208.84ZM882.11 179.86L867.269 169.675C867.224 169.741 867.178 169.808 867.134 169.875L882.11 179.86ZM896.67 168.38L889.294 151.961L889.294 151.961L896.67 168.38ZM939.65 166.28L935.41 183.773C935.512 183.798 935.615 183.822 935.718 183.845L939.65 166.28ZM956.31 172.58L972.936 179.479C976.401 171.13 973.135 161.506 965.305 156.989L956.31 172.58ZM947.77 193.16L939.218 208.998C943.698 211.418 948.994 211.826 953.793 210.123C958.592 208.419 962.444 204.762 964.396 200.059L947.77 193.16ZM933.91 187.56L928.965 204.867C929.075 204.899 929.185 204.929 929.295 204.958L933.91 187.56ZM911.37 186.86L916.856 204.004C917.061 203.938 917.265 203.869 917.467 203.796L911.37 186.86ZM906.33 189.94L892.177 178.819L892.177 178.819L906.33 189.94ZM907.73 199.6L897.746 214.577C898.017 214.758 898.293 214.931 898.573 215.097L907.73 199.6ZM915.71 202.68L911.228 220.113C911.42 220.162 911.612 220.208 911.806 220.251L915.71 202.68ZM926.63 205.06L922.859 222.66C922.887 222.666 922.915 222.672 922.943 222.678L926.63 205.06ZM938.53 208.28L932.838 225.356C932.999 225.41 933.16 225.461 933.321 225.51L938.53 208.28ZM949.45 213.32L939.565 228.363C939.667 228.429 939.769 228.495 939.871 228.559L949.45 213.32ZM957.29 221.58L941.636 230.465C941.732 230.634 941.83 230.801 941.931 230.966L957.29 221.58ZM955.47 250.14L940.538 240.089C940.523 240.111 940.508 240.133 940.494 240.155L955.47 250.14ZM941.05 261.62L933.674 245.201C933.644 245.214 933.614 245.228 933.584 245.242L941.05 261.62ZM916.97 265.96V247.96C910.425 247.96 904.217 247.163 898.301 245.61L893.73 263.02L889.16 280.43C898.177 282.797 907.463 283.96 916.97 283.96V265.96ZM893.73 263.02L898.559 245.68C892.446 243.977 888.378 242.054 885.792 240.295L875.67 255.18L865.549 270.065C872.296 274.653 880.268 277.956 888.902 280.36L893.73 263.02ZM875.67 255.18L892.114 262.501L901.214 242.061L884.77 234.74L868.327 227.419L859.227 247.859L875.67 255.18ZM884.77 234.74L875.086 249.913C880.92 253.636 887.366 256.576 894.283 258.844L899.89 241.74L905.498 224.636C901.028 223.17 897.394 221.444 894.455 219.567L884.77 234.74ZM899.89 241.74L894.616 258.95C902.004 261.214 909.52 262.4 917.11 262.4V244.4V226.4C913.314 226.4 909.35 225.813 905.165 224.53L899.89 241.74ZM917.11 244.4V262.4C921.747 262.4 926.652 262.028 931.204 260.753L926.35 243.42L921.497 226.087C921.521 226.08 921.193 226.17 920.392 226.255C919.609 226.338 918.531 226.4 917.11 226.4V244.4ZM926.35 243.42L931.836 260.564C935.512 259.388 940.595 257.216 944.659 252.783L931.39 240.62L918.122 228.457C919.209 227.271 920.195 226.661 920.619 226.425C921.052 226.185 921.194 226.171 920.865 226.276L926.35 243.42ZM931.39 240.62L944.617 252.829C948.669 248.44 951.07 242.731 951.07 236.42H933.07H915.07C915.07 235.045 915.323 233.511 915.938 231.975C916.547 230.451 917.377 229.264 918.164 228.411L931.39 240.62ZM933.07 236.42H951.07C951.07 227.416 946.363 220.183 939.654 215.914L929.99 231.1L920.327 246.286C919.371 245.678 917.906 244.472 916.723 242.429C915.504 240.323 915.07 238.163 915.07 236.42H933.07ZM929.99 231.1L939.654 215.914C935.519 213.283 930.941 211.591 926.493 210.447L922.01 227.88L917.528 245.313C918.524 245.569 919.238 245.813 919.72 246.007C920.205 246.203 920.375 246.317 920.327 246.286L929.99 231.1ZM922.01 227.88L926.493 210.447C922.914 209.527 919.003 208.626 914.778 207.742L911.09 225.36L907.403 242.978C911.204 243.774 914.574 244.553 917.528 245.313L922.01 227.88ZM911.09 225.36L914.862 207.76C911.581 207.057 908.216 206.148 904.763 205.024L899.19 222.14L893.618 239.256C898.192 240.745 902.76 241.983 907.319 242.96L911.09 225.36ZM899.19 222.14L904.883 205.064C902.231 204.18 899.956 203.096 897.99 201.861L888.41 217.1L878.831 232.339C883.399 235.21 888.31 237.487 893.498 239.216L899.19 222.14ZM888.41 217.1L898.296 202.057C897.266 201.38 896.469 200.565 895.79 199.454L880.43 208.84L865.071 218.226C868.499 223.835 873.022 228.526 878.525 232.143L888.41 217.1ZM880.43 208.84L895.902 199.641C895.9 199.638 895.87 199.587 895.823 199.468C895.776 199.348 895.707 199.148 895.637 198.851C895.494 198.248 895.35 197.27 895.35 195.82H877.35H859.35C859.35 203.332 860.824 211.085 864.959 218.039L880.43 208.84ZM877.35 195.82H895.35C895.35 193.389 895.943 191.562 897.087 189.845L882.11 179.86L867.134 169.875C861.932 177.678 859.35 186.491 859.35 195.82H877.35ZM882.11 179.86L896.952 190.045C897.972 188.558 899.949 186.64 904.047 184.799L896.67 168.38L889.294 151.961C880.512 155.906 872.782 161.642 867.269 169.675L882.11 179.86ZM896.67 168.38L904.047 184.799C907.489 183.253 912.813 182.04 920.75 182.04V164.04V146.04C909.461 146.04 898.732 147.721 889.294 151.961L896.67 168.38ZM920.75 164.04V182.04C925.785 182.04 930.66 182.622 935.41 183.773L939.65 166.28L943.891 148.787C936.321 146.951 928.596 146.04 920.75 146.04V164.04ZM939.65 166.28L935.718 183.845C940.444 184.903 944.248 186.402 947.315 188.171L956.31 172.58L965.305 156.989C958.666 153.158 951.363 150.457 943.583 148.715L939.65 166.28ZM956.31 172.58L939.685 165.681L931.145 186.261L947.77 193.16L964.396 200.059L972.936 179.479L956.31 172.58ZM947.77 193.16L956.323 177.322C950.558 174.208 944.622 171.779 938.526 170.162L933.91 187.56L929.295 204.958C932.346 205.768 935.65 207.072 939.218 208.998L947.77 193.16ZM933.91 187.56L938.855 170.253C932.845 168.535 926.746 167.6 920.61 167.6V185.6V203.6C923.062 203.6 925.829 203.971 928.965 204.867L933.91 187.56ZM920.61 185.6V167.6C915.709 167.6 910.325 168.105 905.274 169.924L911.37 186.86L917.467 203.796C917.193 203.895 917.273 203.83 917.863 203.75C918.438 203.672 919.333 203.6 920.61 203.6V185.6ZM911.37 186.86L905.885 169.716C901.662 171.067 896.249 173.636 892.177 178.819L906.33 189.94L920.484 201.061C919.454 202.372 918.405 203.147 917.747 203.549C917.108 203.94 916.739 204.041 916.856 204.004L911.37 186.86ZM906.33 189.94L892.177 178.819C888.629 183.335 886.79 188.755 886.79 194.42H904.79H922.79C922.79 195.443 922.629 196.638 922.198 197.891C921.766 199.147 921.149 200.214 920.484 201.061L906.33 189.94ZM904.79 194.42H886.79C886.79 203.245 891.354 210.315 897.746 214.577L907.73 199.6L917.715 184.623C918.641 185.241 920.046 186.442 921.18 188.44C922.351 190.504 922.79 192.639 922.79 194.42H904.79ZM907.73 199.6L898.573 215.097C902.55 217.447 906.94 219.01 911.228 220.113L915.71 202.68L920.193 185.247C917.947 184.67 917.017 184.18 916.888 184.103L907.73 199.6ZM915.71 202.68L911.806 220.251C915.217 221.009 918.902 221.812 922.859 222.66L926.63 205.06L930.402 187.46C926.519 186.628 922.924 185.844 919.615 185.109L915.71 202.68ZM926.63 205.06L922.943 222.678C926.273 223.375 929.57 224.267 932.838 225.356L938.53 208.28L944.223 191.204C939.65 189.68 935.015 188.425 930.318 187.442L926.63 205.06ZM938.53 208.28L933.321 225.51C935.799 226.259 937.845 227.232 939.565 228.363L949.45 213.32L959.336 198.277C954.522 195.114 949.289 192.728 943.739 191.05L938.53 208.28ZM949.45 213.32L939.871 228.559C940.544 228.982 941.1 229.521 941.636 230.465L957.29 221.58L972.945 212.695C969.561 206.732 964.891 201.765 959.03 198.081L949.45 213.32ZM957.29 221.58L941.931 230.966C941.808 230.763 942.37 231.514 942.37 234.32H960.37H978.37C978.37 226.859 976.88 219.116 972.65 212.194L957.29 221.58ZM960.37 234.32H942.37C942.37 236.329 941.864 238.119 940.538 240.089L955.47 250.14L970.403 260.191C975.611 252.454 978.37 243.698 978.37 234.32H960.37ZM955.47 250.14L940.494 240.155C939.594 241.505 937.749 243.37 933.674 245.201L941.05 261.62L948.427 278.039C957.232 274.083 965 268.295 970.447 260.125L955.47 250.14ZM941.05 261.62L933.584 245.242C930.311 246.734 925.045 247.96 916.97 247.96V265.96V283.96C928.309 283.96 939.097 282.293 948.517 277.998L941.05 261.62ZM984.375 263.02L979.546 280.36C979.632 280.384 979.718 280.407 979.805 280.43L984.375 263.02ZM966.315 255.18L949.871 247.859C946.329 255.816 948.991 265.167 956.193 270.065L966.315 255.18ZM975.415 234.74L985.1 219.567C980.682 216.747 975.254 215.993 970.235 217.502C965.215 219.01 961.103 222.631 958.971 227.419L975.415 234.74ZM990.535 241.74L984.927 258.844C985.038 258.881 985.149 258.916 985.261 258.95L990.535 241.74ZM1017 243.42L1021.85 260.753C1022.06 260.694 1022.27 260.631 1022.48 260.564L1017 243.42ZM1022.04 240.62L1008.81 228.411C1008.79 228.426 1008.78 228.442 1008.77 228.457L1022.04 240.62ZM1020.64 231.1L1010.97 246.286L1010.97 246.286L1020.64 231.1ZM1012.66 227.88L1017.14 210.447L1017.14 210.447L1012.66 227.88ZM1001.74 225.36L997.963 242.96C997.991 242.966 998.019 242.972 998.047 242.978L1001.74 225.36ZM989.835 222.14L984.143 239.216C984.183 239.23 984.223 239.243 984.262 239.256L989.835 222.14ZM979.055 217.1L969.17 232.143C969.271 232.209 969.373 232.275 969.476 232.339L979.055 217.1ZM971.075 208.84L955.603 218.039C955.641 218.102 955.678 218.164 955.716 218.226L971.075 208.84ZM972.755 179.86L957.914 169.675C957.868 169.741 957.823 169.808 957.778 169.875L972.755 179.86ZM987.315 168.38L979.938 151.961L979.938 151.961L987.315 168.38ZM1030.3 166.28L1026.05 183.773C1026.16 183.798 1026.26 183.822 1026.36 183.845L1030.3 166.28ZM1046.96 172.58L1063.58 179.479C1067.05 171.13 1063.78 161.506 1055.95 156.989L1046.96 172.58ZM1038.42 193.16L1029.86 208.998C1034.34 211.418 1039.64 211.826 1044.44 210.123C1049.24 208.419 1053.09 204.762 1055.04 200.059L1038.42 193.16ZM1024.56 187.56L1019.61 204.867C1019.72 204.899 1019.83 204.929 1019.94 204.958L1024.56 187.56ZM1002.02 186.86L1007.5 204.004C1007.71 203.938 1007.91 203.869 1008.11 203.796L1002.02 186.86ZM996.975 189.94L982.821 178.819L982.821 178.819L996.975 189.94ZM998.375 199.6L988.39 214.577C988.661 214.758 988.937 214.931 989.218 215.097L998.375 199.6ZM1006.36 202.68L1001.87 220.113C1002.06 220.162 1002.26 220.208 1002.45 220.251L1006.36 202.68ZM1017.28 205.06L1013.5 222.66C1013.53 222.666 1013.56 222.672 1013.59 222.678L1017.28 205.06ZM1029.18 208.28L1023.48 225.356C1023.64 225.41 1023.8 225.461 1023.97 225.51L1029.18 208.28ZM1040.1 213.32L1030.21 228.363C1030.31 228.429 1030.41 228.495 1030.52 228.559L1040.1 213.32ZM1047.94 221.58L1032.28 230.465C1032.38 230.634 1032.47 230.801 1032.58 230.966L1047.94 221.58ZM1046.12 250.14L1031.18 240.089C1031.17 240.111 1031.15 240.133 1031.14 240.155L1046.12 250.14ZM1031.7 261.62L1024.32 245.201C1024.29 245.214 1024.26 245.228 1024.23 245.242L1031.7 261.62ZM1007.62 265.96V247.96C1001.07 247.96 994.862 247.163 988.945 245.61L984.375 263.02L979.805 280.43C988.822 282.797 998.107 283.96 1007.62 283.96V265.96ZM984.375 263.02L989.204 245.68C983.091 243.977 979.023 242.054 976.437 240.295L966.315 255.18L956.193 270.065C962.941 274.653 970.912 277.956 979.546 280.36L984.375 263.02ZM966.315 255.18L982.759 262.501L991.859 242.061L975.415 234.74L958.971 227.419L949.871 247.859L966.315 255.18ZM975.415 234.74L965.73 249.913C971.564 253.636 978.011 256.576 984.927 258.844L990.535 241.74L996.143 224.636C991.673 223.17 988.039 221.444 985.1 219.567L975.415 234.74ZM990.535 241.74L985.261 258.95C992.649 261.214 1000.16 262.4 1007.76 262.4V244.4V226.4C1003.96 226.4 999.995 225.813 995.809 224.53L990.535 241.74ZM1007.76 244.4V262.4C1012.39 262.4 1017.3 262.028 1021.85 260.753L1017 243.42L1012.14 226.087C1012.17 226.08 1011.84 226.17 1011.04 226.255C1010.25 226.338 1009.18 226.4 1007.76 226.4V244.4ZM1017 243.42L1022.48 260.564C1026.16 259.388 1031.24 257.216 1035.3 252.783L1022.04 240.62L1008.77 228.457C1009.85 227.271 1010.84 226.661 1011.26 226.425C1011.7 226.185 1011.84 226.171 1011.51 226.276L1017 243.42ZM1022.04 240.62L1035.26 252.829C1039.31 248.44 1041.72 242.731 1041.72 236.42H1023.72H1005.72C1005.72 235.045 1005.97 233.511 1006.58 231.975C1007.19 230.451 1008.02 229.264 1008.81 228.411L1022.04 240.62ZM1023.72 236.42H1041.72C1041.72 227.416 1037.01 220.183 1030.3 215.914L1020.64 231.1L1010.97 246.286C1010.02 245.678 1008.55 244.472 1007.37 242.429C1006.15 240.323 1005.72 238.163 1005.72 236.42H1023.72ZM1020.64 231.1L1030.3 215.914C1026.16 213.283 1021.59 211.591 1017.14 210.447L1012.66 227.88L1008.17 245.313C1009.17 245.569 1009.88 245.813 1010.36 246.007C1010.85 246.203 1011.02 246.317 1010.97 246.286L1020.64 231.1ZM1012.66 227.88L1017.14 210.447C1013.56 209.527 1009.65 208.626 1005.42 207.742L1001.74 225.36L998.047 242.978C1001.85 243.774 1005.22 244.553 1008.17 245.313L1012.66 227.88ZM1001.74 225.36L1005.51 207.76C1002.23 207.057 998.86 206.148 995.408 205.024L989.835 222.14L984.262 239.256C988.836 240.745 993.404 241.983 997.963 242.96L1001.74 225.36ZM989.835 222.14L995.527 205.064C992.875 204.18 990.6 203.096 988.634 201.861L979.055 217.1L969.476 232.339C974.043 235.21 978.955 237.487 984.143 239.216L989.835 222.14ZM979.055 217.1L988.94 202.057C987.91 201.38 987.113 200.565 986.434 199.454L971.075 208.84L955.716 218.226C959.144 223.835 963.667 228.526 969.17 232.143L979.055 217.1ZM971.075 208.84L986.547 199.641C986.545 199.638 986.514 199.587 986.468 199.468C986.42 199.348 986.352 199.148 986.282 198.851C986.139 198.248 985.995 197.27 985.995 195.82H967.995H949.995C949.995 203.332 951.468 211.085 955.603 218.039L971.075 208.84ZM967.995 195.82H985.995C985.995 193.389 986.587 191.562 987.732 189.845L972.755 179.86L957.778 169.875C952.576 177.678 949.995 186.491 949.995 195.82H967.995ZM972.755 179.86L987.596 190.045C988.617 188.558 990.593 186.64 994.692 184.799L987.315 168.38L979.938 151.961C971.157 155.906 963.426 161.642 957.914 169.675L972.755 179.86ZM987.315 168.38L994.692 184.799C998.134 183.253 1003.46 182.04 1011.4 182.04V164.04V146.04C1000.11 146.04 989.376 147.721 979.938 151.961L987.315 168.38ZM1011.4 164.04V182.04C1016.43 182.04 1021.3 182.622 1026.05 183.773L1030.3 166.28L1034.54 148.787C1026.97 146.951 1019.24 146.04 1011.4 146.04V164.04ZM1030.3 166.28L1026.36 183.845C1031.09 184.903 1034.89 186.402 1037.96 188.171L1046.96 172.58L1055.95 156.989C1049.31 153.158 1042.01 150.457 1034.23 148.715L1030.3 166.28ZM1046.96 172.58L1030.33 165.681L1021.79 186.261L1038.42 193.16L1055.04 200.059L1063.58 179.479L1046.96 172.58ZM1038.42 193.16L1046.97 177.322C1041.2 174.208 1035.27 171.779 1029.17 170.162L1024.56 187.56L1019.94 204.958C1022.99 205.768 1026.29 207.072 1029.86 208.998L1038.42 193.16ZM1024.56 187.56L1029.5 170.253C1023.49 168.535 1017.39 167.6 1011.26 167.6V185.6V203.6C1013.71 203.6 1016.47 203.971 1019.61 204.867L1024.56 187.56ZM1011.26 185.6V167.6C1006.35 167.6 1000.97 168.105 995.918 169.924L1002.02 186.86L1008.11 203.796C1007.84 203.895 1007.92 203.83 1008.51 203.75C1009.08 203.672 1009.98 203.6 1011.26 203.6V185.6ZM1002.02 186.86L996.529 169.716C992.307 171.067 986.893 173.636 982.821 178.819L996.975 189.94L1011.13 201.061C1010.1 202.372 1009.05 203.147 1008.39 203.549C1007.75 203.94 1007.38 204.041 1007.5 204.004L1002.02 186.86ZM996.975 189.94L982.821 178.819C979.273 183.335 977.435 188.755 977.435 194.42H995.435H1013.44C1013.44 195.443 1013.27 196.638 1012.84 197.891C1012.41 199.147 1011.79 200.214 1011.13 201.061L996.975 189.94ZM995.435 194.42H977.435C977.435 203.245 981.998 210.315 988.39 214.577L998.375 199.6L1008.36 184.623C1009.29 185.241 1010.69 186.442 1011.82 188.44C1013 190.504 1013.44 192.639 1013.44 194.42H995.435ZM998.375 199.6L989.218 215.097C993.195 217.447 997.585 219.01 1001.87 220.113L1006.36 202.68L1010.84 185.247C1008.59 184.67 1007.66 184.18 1007.53 184.103L998.375 199.6ZM1006.36 202.68L1002.45 220.251C1005.86 221.009 1009.55 221.812 1013.5 222.66L1017.28 205.06L1021.05 187.46C1017.16 186.628 1013.57 185.844 1010.26 185.109L1006.36 202.68ZM1017.28 205.06L1013.59 222.678C1016.92 223.375 1020.22 224.267 1023.48 225.356L1029.18 208.28L1034.87 191.204C1030.29 189.68 1025.66 188.425 1020.96 187.442L1017.28 205.06ZM1029.18 208.28L1023.97 225.51C1026.44 226.259 1028.49 227.232 1030.21 228.363L1040.1 213.32L1049.98 198.277C1045.17 195.114 1039.93 192.728 1034.38 191.05L1029.18 208.28ZM1040.1 213.32L1030.52 228.559C1031.19 228.982 1031.74 229.521 1032.28 230.465L1047.94 221.58L1063.59 212.695C1060.21 206.732 1055.54 201.765 1049.67 198.081L1040.1 213.32ZM1047.94 221.58L1032.58 230.966C1032.45 230.763 1033.02 231.514 1033.02 234.32H1051.02H1069.02C1069.02 226.859 1067.52 219.116 1063.29 212.194L1047.94 221.58ZM1051.02 234.32H1033.02C1033.02 236.329 1032.51 238.119 1031.18 240.089L1046.12 250.14L1061.05 260.191C1066.26 252.454 1069.02 243.698 1069.02 234.32H1051.02ZM1046.12 250.14L1031.14 240.155C1030.24 241.505 1028.39 243.37 1024.32 245.201L1031.7 261.62L1039.07 278.039C1047.88 274.083 1055.64 268.295 1061.09 260.125L1046.12 250.14ZM1031.7 261.62L1024.23 245.242C1020.96 246.734 1015.69 247.96 1007.62 247.96V265.96V283.96C1018.95 283.96 1029.74 282.293 1039.16 277.998L1031.7 261.62ZM1063.82 264H1045.82C1045.82 273.941 1053.88 282 1063.82 282V264ZM1063.82 166V148C1053.88 148 1045.82 156.059 1045.82 166H1063.82ZM1131.72 170.34L1124.34 186.759C1124.37 186.772 1124.4 186.785 1124.43 186.798L1131.72 170.34ZM1146.84 182.94L1131.71 192.687C1131.73 192.726 1131.76 192.765 1131.78 192.804L1146.84 182.94ZM1146.84 221.44L1161.82 231.425C1161.84 231.385 1161.87 231.345 1161.9 231.304L1146.84 221.44ZM1131.72 233.76L1138.9 250.267C1138.93 250.251 1138.97 250.235 1139.01 250.218L1131.72 233.76ZM1079.22 237.96L1066.87 224.866C1061.5 229.927 1059.77 237.749 1062.49 244.605C1065.21 251.46 1071.84 255.96 1079.22 255.96V237.96ZM1091.54 226.34H1109.54C1109.54 219.155 1105.27 212.659 1098.67 209.813C1092.07 206.966 1084.42 208.316 1079.19 213.246L1091.54 226.34ZM1091.54 264V282C1101.48 282 1109.54 273.941 1109.54 264H1091.54ZM1124.44 264L1109.57 274.145C1112.92 279.06 1118.49 282 1124.44 282V264ZM1100.08 228.3V210.3C1093.41 210.3 1087.28 213.992 1084.16 219.892C1081.05 225.793 1081.45 232.933 1085.21 238.445L1100.08 228.3ZM1129.62 228.3L1144.46 218.115C1141.1 213.223 1135.55 210.3 1129.62 210.3V228.3ZM1154.12 264V282C1160.8 282 1166.93 278.299 1170.05 272.387C1173.16 266.474 1172.74 259.324 1168.96 253.815L1154.12 264ZM1091.54 229.28L1078.6 241.793C1083.7 247.066 1091.49 248.717 1098.29 245.967C1105.09 243.217 1109.54 236.615 1109.54 229.28H1091.54ZM1079.22 216.54V198.54C1071.99 198.54 1065.47 202.861 1062.65 209.513C1059.83 216.165 1061.26 223.859 1066.28 229.053L1079.22 216.54ZM1119.82 212.76L1108 199.187C1107.92 199.251 1107.85 199.315 1107.78 199.381L1119.82 212.76ZM1119.82 191.62L1107.78 204.999C1107.85 205.065 1107.92 205.129 1108 205.193L1119.82 191.62ZM1079.22 187.84L1066.28 175.327C1061.26 180.521 1059.83 188.215 1062.65 194.867C1065.47 201.519 1071.99 205.84 1079.22 205.84V187.84ZM1091.54 175.1H1109.54C1109.54 167.765 1105.09 161.163 1098.29 158.413C1091.49 155.663 1083.7 157.314 1078.6 162.587L1091.54 175.1ZM1063.82 264H1081.82V166H1063.82H1045.82V264H1063.82ZM1063.82 166V184H1108.62V166V148H1063.82V166ZM1108.62 166V184C1115.7 184 1120.76 185.148 1124.34 186.759L1131.72 170.34L1139.1 153.921C1129.8 149.745 1119.46 148 1108.62 148V166ZM1131.72 170.34L1124.43 186.798C1128.05 188.403 1130.24 190.403 1131.71 192.687L1146.84 182.94L1161.97 173.193C1156.35 164.463 1148.45 158.064 1139.01 153.882L1131.72 170.34ZM1146.84 182.94L1131.78 192.804C1133.13 194.856 1134.16 197.746 1134.16 202.26H1152.16H1170.16C1170.16 191.841 1167.65 181.851 1161.9 173.076L1146.84 182.94ZM1152.16 202.26H1134.16C1134.16 206.631 1133.15 209.487 1131.78 211.576L1146.84 221.44L1161.9 231.304C1167.62 222.566 1170.16 212.635 1170.16 202.26H1152.16ZM1146.84 221.44L1131.86 211.455C1130.43 213.605 1128.22 215.625 1124.43 217.302L1131.72 233.76L1139.01 250.218C1148.29 246.109 1156.16 239.915 1161.82 231.425L1146.84 221.44ZM1131.72 233.76L1124.54 217.253C1120.9 218.837 1115.77 219.96 1108.62 219.96V237.96V255.96C1119.39 255.96 1129.66 254.283 1138.9 250.267L1131.72 233.76ZM1108.62 237.96V219.96H1079.22V237.96V255.96H1108.62V237.96ZM1079.22 237.96L1091.57 251.054L1103.89 239.434L1091.54 226.34L1079.19 213.246L1066.87 224.866L1079.22 237.96ZM1091.54 226.34H1073.54V264H1091.54H1109.54V226.34H1091.54ZM1091.54 264V246H1063.82V264V282H1091.54V264ZM1124.44 264L1139.31 253.855L1114.95 218.155L1100.08 228.3L1085.21 238.445L1109.57 274.145L1124.44 264ZM1100.08 228.3V246.3H1129.62V228.3V210.3H1100.08V228.3ZM1129.62 228.3L1114.78 238.485L1139.28 274.185L1154.12 264L1168.96 253.815L1144.46 218.115L1129.62 228.3ZM1154.12 264V246H1124.44V264V282H1154.12V264ZM1091.54 229.28L1104.48 216.767L1092.16 204.027L1079.22 216.54L1066.28 229.053L1078.6 241.793L1091.54 229.28ZM1079.22 216.54V234.54H1106.94V216.54V198.54H1079.22V216.54ZM1106.94 216.54V234.54C1114.88 234.54 1124.37 232.878 1131.86 226.139L1119.82 212.76L1107.78 199.381C1108.72 198.53 1109.47 198.311 1109.43 198.323C1109.4 198.333 1109.19 198.389 1108.77 198.443C1108.34 198.496 1107.74 198.54 1106.94 198.54V216.54ZM1119.82 212.76L1131.64 226.333C1139.13 219.809 1142.16 210.982 1142.16 202.26H1124.16H1106.16C1106.16 202.565 1106.11 202.16 1106.44 201.369C1106.79 200.509 1107.37 199.732 1108 199.187L1119.82 212.76ZM1124.16 202.26H1142.16C1142.16 193.578 1139.22 184.645 1131.64 178.047L1119.82 191.62L1108 205.193C1107.33 204.608 1106.75 203.806 1106.41 202.968C1106.1 202.208 1106.16 201.862 1106.16 202.26H1124.16ZM1119.82 191.62L1131.86 178.241C1124.37 171.502 1114.88 169.84 1106.94 169.84V187.84V205.84C1107.74 205.84 1108.34 205.884 1108.77 205.937C1109.19 205.991 1109.4 206.047 1109.43 206.057C1109.47 206.069 1108.72 205.85 1107.78 204.999L1119.82 191.62ZM1106.94 187.84V169.84H1079.22V187.84V205.84H1106.94V187.84ZM1079.22 187.84L1092.16 200.353L1104.48 187.613L1091.54 175.1L1078.6 162.587L1066.28 175.327L1079.22 187.84ZM1091.54 175.1H1073.54V229.28H1091.54H1109.54V175.1H1091.54Z" fill="#EB4343" mask="url(#path-1-outside-1_3_54)"/>
<path d="M263.357 140.119C263.357 140.119 263.328 130.791 263.271 130.219L256.547 136.8C254.687 138.631 251.711 138.631 249.88 136.8L245.216 132.193L240.58 136.829C239.693 137.716 238.492 138.202 237.233 138.202C235.974 138.202 234.772 137.716 233.885 136.829L229.278 132.193L224.643 136.829C223.756 137.716 222.554 138.202 221.295 138.202C220.036 138.202 218.834 137.716 217.947 136.829L213.312 132.193L208.677 136.829C207.79 137.716 206.588 138.202 205.329 138.202C204.07 138.202 202.868 137.716 201.981 136.829L193.998 128.846C192.167 126.986 192.167 124.01 193.998 122.179C195.858 120.319 198.834 120.319 200.665 122.179L205.3 126.814L209.936 122.179C211.767 120.319 214.771 120.319 216.603 122.179L221.238 126.814L225.873 122.179C226.76 121.292 227.962 120.805 229.221 120.805C230.48 120.805 231.682 121.292 232.569 122.179L237.204 126.814L241.839 122.179C242.726 121.292 243.928 120.805 245.187 120.805C246.446 120.805 247.648 121.292 248.535 122.179L253.17 126.814C253.17 126.814 258.206 121.835 258.407 121.692C257.062 120.634 255.488 119.804 253.743 119.317L200.665 104.667C198.376 104.038 196.802 101.978 196.802 99.6028C196.802 94.4524 192.596 90.2463 187.446 90.2463C184.384 90.2463 181.523 91.7342 179.777 94.2522C178.804 95.6542 177.173 96.5126 175.485 96.5126H158.947L152.223 103.237C151.307 104.152 150.105 104.61 148.875 104.61C147.673 104.61 146.443 104.152 145.527 103.237C143.696 101.405 143.696 98.4011 145.527 96.5698L145.613 96.484H140.691L133.939 103.237C133.023 104.152 131.821 104.61 130.591 104.61C129.389 104.61 128.159 104.152 127.243 103.237C125.412 101.405 125.412 98.4011 127.243 96.5698L127.329 96.484H122.465L115.712 103.237C114.796 104.152 113.595 104.61 112.364 104.61C111.163 104.61 109.932 104.152 109.017 103.237C107.185 101.405 107.185 98.4011 109.017 96.5698L109.102 96.484H104.181L97.4282 103.237C96.5126 104.152 95.3108 104.61 94.0805 104.61C92.8787 104.61 91.6483 104.152 90.7327 103.237C88.9015 101.405 88.9015 98.4011 90.7327 96.5698L90.8185 96.484H85.8971L79.1443 103.237C78.2287 104.152 77.0269 104.61 75.7966 104.61C74.5948 104.61 73.3931 104.152 72.4488 103.237C70.5889 101.405 70.5889 98.4011 72.4488 96.5698L72.5347 96.484C56.3109 96.5126 41.6037 105.44 34.0784 119.832C34.0498 119.861 34.0498 119.918 34.0212 119.947C33.22 121.463 32.5047 123.066 31.9038 124.668C30.0725 129.532 29.1569 134.683 29.1569 139.948C29.1569 156.801 35.6807 172.653 47.5553 184.584C59.4012 196.487 75.1671 203.126 91.9917 203.24C92.3064 203.212 92.5353 202.983 92.5353 202.668C92.5353 202.353 92.2778 202.096 91.9631 202.096H90.1318C73.5933 202.096 60.1165 188.619 60.1165 172.08C60.1165 164.813 62.7203 157.917 67.3843 152.509C66.2111 150.42 65.553 148.017 65.553 145.47V130.105C65.553 122.064 72.0768 115.54 80.1172 115.54C88.1575 115.54 94.6813 122.064 94.6813 130.105V130.763C102.75 131.163 109.789 135.57 113.795 142.036H133.681V130.105C133.681 122.064 140.205 115.54 148.245 115.54C156.286 115.54 162.81 122.064 162.81 130.105V130.763C170.879 131.163 177.917 135.57 181.923 142.036H261.382C262.498 142.036 263.357 141.178 263.357 140.119Z" fill="white"/>
<path d="M256.547 109.188C266.79 112.021 273.915 121.406 273.858 132.022L273.829 140.148C273.8 146.958 268.249 152.509 261.411 152.509H185.471C185.529 153.196 185.557 153.882 185.557 154.598C185.557 157.488 183.211 159.834 180.321 159.834H148.131C142.752 159.834 138.059 156.858 135.57 152.509H117.314C117.372 153.196 117.4 153.882 117.4 154.598C117.4 157.488 115.054 159.834 112.164 159.834H79.9741C78.4004 159.834 76.9125 159.576 75.4818 159.118C72.363 162.667 70.6176 167.216 70.6176 172.023C70.6176 182.782 79.3732 191.537 90.1318 191.537H91.9631C98.0577 191.537 103.036 196.516 103.036 202.611C103.036 208.619 98.1436 213.598 92.1061 213.684H91.9917C72.363 213.57 53.936 205.844 40.1158 191.938C26.267 178.032 18.6559 159.548 18.6559 139.89C18.6559 133.367 19.8004 126.986 22.0894 120.92C22.8334 118.945 24.7219 115.054 24.7219 115.025C24.7505 114.997 24.7505 114.968 24.7505 114.94C34.0784 97.0563 52.4195 85.9257 72.5919 85.9257H172.996C176.716 81.977 181.923 79.688 187.446 79.688C196.974 79.688 204.957 86.4407 206.874 95.4253L256.547 109.188Z" fill="#EB4343"/>
<path d="M193.483 99.5742C193.483 96.2551 190.793 93.5654 187.474 93.5654C184.155 93.5654 181.465 96.2551 181.465 99.5742C181.465 102.893 184.155 105.583 187.474 105.583C190.793 105.612 193.483 102.922 193.483 99.5742Z" fill="#EB4343"/>
<path d="M263.271 130.219C263.357 130.791 263.357 140.119 263.357 140.119C263.357 141.178 262.498 142.036 261.44 142.036H181.952C177.917 135.57 170.907 131.135 162.838 130.763V130.105C162.838 122.064 156.314 115.54 148.274 115.54C140.234 115.54 133.71 122.064 133.71 130.105V142.036H113.824C109.789 135.57 102.779 131.135 94.71 130.763V130.105C94.71 122.064 88.1861 115.54 80.1458 115.54C72.1055 115.54 65.5816 122.064 65.5816 130.105V145.47C65.5816 148.016 66.2397 150.42 67.4129 152.509C62.7489 157.888 60.1451 164.784 60.1451 172.08C60.1451 188.619 73.622 202.096 90.1605 202.096H91.9917C92.3064 202.096 92.564 202.353 92.564 202.668C92.564 202.983 92.3064 203.24 92.0203 203.24C75.2243 203.126 59.4298 196.487 47.5839 184.584C35.7094 172.653 29.1855 156.801 29.1855 139.948C29.1855 134.683 30.1012 129.561 31.9324 124.668C32.5333 123.066 33.2486 121.463 34.0498 119.947C34.0784 119.918 34.0784 119.861 34.107 119.832C41.6323 105.44 56.3682 96.5126 72.5633 96.484L72.4774 96.5698C70.6176 98.4297 70.6176 101.405 72.4774 103.237C73.3931 104.152 74.5948 104.61 75.8252 104.61C77.027 104.61 78.2573 104.152 79.173 103.237L85.9257 96.484H90.8472L90.7613 96.5698C88.9301 98.4297 88.9301 101.405 90.7613 103.237C91.677 104.152 92.8787 104.61 94.1091 104.61C95.3108 104.61 96.5126 104.152 97.4568 103.237L104.21 96.484H109.131L109.045 96.5698C107.214 98.4297 107.214 101.405 109.045 103.237C109.961 104.152 111.163 104.61 112.393 104.61C113.595 104.61 114.796 104.152 115.741 103.237L122.493 96.484H127.415L127.329 96.5698C125.498 98.4297 125.498 101.405 127.329 103.237C128.245 104.152 129.446 104.61 130.677 104.61C131.879 104.61 133.08 104.152 134.025 103.237L140.777 96.484H145.642L145.556 96.5698C143.725 98.4297 143.725 101.405 145.556 103.237C146.471 104.152 147.673 104.61 148.904 104.61C150.105 104.61 151.307 104.152 152.251 103.237L159.004 96.484H175.542C177.259 96.484 178.862 95.6542 179.834 94.2235C181.58 91.7056 184.441 90.2177 187.503 90.2177C192.653 90.2177 196.859 94.4238 196.859 99.5742C196.859 101.921 198.433 104.009 200.722 104.639L253.8 119.289C255.545 119.775 257.09 120.576 258.464 121.664C258.263 121.807 253.228 126.785 253.228 126.785L248.564 122.179C247.677 121.292 246.475 120.805 245.216 120.805C243.957 120.805 242.755 121.292 241.868 122.179L237.233 126.814L232.597 122.179C231.71 121.292 230.509 120.805 229.25 120.805C227.991 120.805 226.789 121.292 225.902 122.179L221.267 126.814L216.66 122.179C214.8 120.319 211.824 120.319 209.993 122.179L205.358 126.814L200.722 122.179C198.891 120.319 195.887 120.319 194.055 122.179C192.224 124.01 192.224 127.014 194.055 128.846L202.038 136.829C202.925 137.716 204.127 138.202 205.386 138.202C206.645 138.202 207.847 137.716 208.734 136.829L213.369 132.193L218.005 136.829C218.892 137.716 220.093 138.202 221.352 138.202C222.611 138.202 223.813 137.716 224.7 136.829L229.335 132.193L233.971 136.829C234.858 137.716 236.06 138.202 237.319 138.202C238.578 138.202 239.779 137.716 240.666 136.829L245.302 132.193L249.937 136.829C251.797 138.66 254.773 138.66 256.604 136.829L263.271 130.219Z" fill="white"/>
<path d="M187.474 93.5654C190.793 93.5654 193.483 96.2551 193.483 99.5742C193.483 102.893 190.793 105.583 187.474 105.583C184.155 105.583 181.465 102.893 181.465 99.5742C181.465 96.2551 184.155 93.5654 187.474 93.5654Z" fill="#EB4343"/>
<path d="M173.997 149.39H148.131C145.956 149.39 144.211 147.616 144.211 145.47V130.105C144.211 127.873 146.042 126.042 148.274 126.042C150.506 126.042 152.337 127.873 152.337 130.105V135.97C152.337 138.86 154.683 141.207 157.573 141.207H161.665C167.187 141.235 171.966 144.583 173.997 149.39ZM105.841 149.39H79.9741C77.7995 149.39 76.0541 147.616 76.0541 145.47V130.105C76.0541 127.873 77.8853 126.042 80.1172 126.042C82.3776 126.042 84.1803 127.873 84.1803 130.105V135.97C84.1803 138.86 86.5265 141.207 89.4165 141.207H93.5082C99.0592 141.235 103.809 144.583 105.841 149.39Z" fill="white"/>
</svg>
